<svg id="visual" viewBox="0 0 900 600" width="900" height="600" xmlns="http://www.w3.org/2000/svg" xmlns:xlink="http://www.w3.org/1999/xlink" version="1.1"><rect x="0" y="0" width="900" height="600" fill="#001220"></rect><path d="M0 223L21.5 228.7C43 234.3 86 245.7 128.8 242.2C171.7 238.7 214.3 220.3 257.2 224.3C300 228.3 343 254.7 385.8 268.8C428.7 283 471.3 285 514.2 284.7C557 284.3 600 281.7 642.8 282.8C685.7 284 728.3 289 771.2 274C814 259 857 224 878.5 206.5L900 189L900 0L878.5 0C857 0 814 0 771.2 0C728.3 0 685.7 0 642.8 0C600 0 557 0 514.2 0C471.3 0 428.7 0 385.8 0C343 0 300 0 257.2 0C214.3 0 171.7 0 128.8 0C86 0 43 0 21.5 0L0 0Z" fill="#4071bf"></path><path d="M0 173L21.5 184.8C43 196.7 86 220.3 128.8 218.2C171.7 216 214.3 188 257.2 183.2C300 178.3 343 196.7 385.8 193.8C428.7 191 471.3 167 514.2 167.7C557 168.3 600 193.7 642.8 207C685.7 220.3 728.3 221.7 771.2 216.7C814 211.7 857 200.3 878.5 194.7L900 189L900 0L878.5 0C857 0 814 0 771.2 0C728.3 0 685.7 0 642.8 0C600 0 557 0 514.2 0C471.3 0 428.7 0 385.8 0C343 0 300 0 257.2 0C214.3 0 171.7 0 128.8 0C86 0 43 0 21.5 0L0 0Z" fill="#3d6ab5"></path><path d="M0 136L21.5 133C43 130 86 124 128.8 127.8C171.7 131.7 214.3 145.3 257.2 155.5C300 165.7 343 172.3 385.8 173C428.7 173.7 471.3 168.3 514.2 157.2C557 146 600 129 642.8 127C685.7 125 728.3 138 771.2 144C814 150 857 149 878.5 148.5L900 148L900 0L878.5 0C857 0 814 0 771.2 0C728.3 0 685.7 0 642.8 0C600 0 557 0 514.2 0C471.3 0 428.7 0 385.8 0C343 0 300 0 257.2 0C214.3 0 171.7 0 128.8 0C86 0 43 0 21.5 0L0 0Z" fill="#3964ab"></path><path d="M0 128L21.5 118C43 108 86 88 128.8 80.3C171.7 72.7 214.3 77.3 257.2 87.3C300 97.3 343 112.7 385.8 111C428.7 109.3 471.3 90.7 514.2 88.7C557 86.7 600 101.3 642.8 101.5C685.7 101.7 728.3 87.3 771.2 81.7C814 76 857 79 878.5 80.5L900 82L900 0L878.5 0C857 0 814 0 771.2 0C728.3 0 685.7 0 642.8 0C600 0 557 0 514.2 0C471.3 0 428.7 0 385.8 0C343 0 300 0 257.2 0C214.3 0 171.7 0 128.8 0C86 0 43 0 21.5 0L0 0Z" fill="#355ea1"></path><path d="M0 64L21.5 65.7C43 67.3 86 70.7 128.8 68.8C171.7 67 214.3 60 257.2 56.7C300 53.3 343 53.7 385.8 59C428.7 64.3 471.3 74.7 514.2 72C557 69.3 600 53.7 642.8 49.7C685.7 45.7 728.3 53.3 771.2 52.2C814 51 857 41 878.5 36L900 31L900 0L878.5 0C857 0 814 0 771.2 0C728.3 0 685.7 0 642.8 0C600 0 557 0 514.2 0C471.3 0 428.7 0 385.8 0C343 0 300 0 257.2 0C214.3 0 171.7 0 128.8 0C86 0 43 0 21.5 0L0 0Z" fill="#325897"></path></svg>