<svg width="32" height="32" viewBox="0 0 32 32" fill="none" xmlns="http://www.w3.org/2000/svg">
<path d="M16 2.66667C8.64001 2.66667 2.66667 8.64001 2.66667 16C2.66667 23.36 8.64001 29.3333 16 29.3333C23.36 29.3333 29.3333 23.36 29.3333 16C29.3333 8.64001 23.36 2.66667 16 2.66667ZM16 26.6667C10.1067 26.6667 5.33334 21.8933 5.33334 16C5.33334 10.1067 10.1067 5.33334 16 5.33334C21.8933 5.33334 26.6667 10.1067 26.6667 16C26.6667 21.8933 21.8933 26.6667 16 26.6667Z" fill="#5B5C61"/>
<path d="M14 21.42L9 16.42L10.41 15.01L14 18.59L21.59 11L23 12.42L14 21.42Z" fill="#5B5C61"/>
</svg>
